<?xml version="1.0" encoding="utf-8"?>
<!-- Generator: Adobe Illustrator 15.0.0, SVG Export Plug-In . SVG Version: 6.00 Build 0)  -->
<!DOCTYPE svg PUBLIC "-//W3C//DTD SVG 1.1//EN" "http://www.w3.org/Graphics/SVG/1.1/DTD/svg11.dtd">
<svg version="1.1" id="Группа_1_1_" xmlns="http://www.w3.org/2000/svg" xmlns:xlink="http://www.w3.org/1999/xlink" x="0px"
	 y="0px" width="50px" height="100px" viewBox="0 0 50 100" enable-background="new 0 0 50 100" xml:space="preserve">
<g id="Фигура_2_копия">
	<g>
		<path fill-rule="evenodd" clip-rule="evenodd" fill="#FFFFFF" d="M10.331,9.681c-0.672,0.525-1.309,1.075-1.91,1.646
			c-0.588,0.521-1.119,1.079-1.614,1.688C3.534,16.768,1.62,21.29,1.128,26.196c-0.596,5.943,0.877,12.515,4.813,17.48
			c3.354,4.232,8.287,6.87,13.514,8.016c0.196,0.448,1.162,0.89,1.825,1.022c0.873,0.176,1.762,0.32,2.777,0.408
			c0.036,0.174,0.304,1.519,0.218,2.813c-0.06,0.896-0.234,1.568-0.225,2.4c0.009,0.816,0.064,1.327,0.094,1.547
			c-0.182,0.065-0.299,0.15-0.284,0.252c0.06,0.398,0.596,0.352,0.404,0.38c-0.21,0.03-0.514,0.173-0.518,0.325
			c-0.006,0.24,0.867,0.672,0.857,1.071c-0.008,0.335-0.018,0.72-0.029,1.146c-0.002,0.074-0.265,0.069-0.267,0.145
			c-0.001,0.069,0.258,0.219,0.256,0.289c-0.004,0.175-0.009,0.355-0.014,0.541c-0.002,0.073-0.249,0.082-0.25,0.158
			c-0.001,0.057,0.242,0.179,0.241,0.236c-0.005,0.197-0.01,0.399-0.016,0.606c-0.002,0.082-0.273,0.099-0.275,0.183
			c-0.002,0.082,0.265,0.232,0.263,0.316c-0.006,0.246-0.012,0.496-0.019,0.75c-0.001,0.07-0.262,0.087-0.264,0.157
			c-0.002,0.083,0.254,0.219,0.252,0.303c-0.005,0.204-0.011,0.411-0.016,0.619c-0.002,0.079-0.247,0.066-0.249,0.146
			c-0.002,0.074,0.239,0.24,0.238,0.315c-0.006,0.235-0.012,0.473-0.018,0.71c-0.002,0.088-0.196,0.074-0.198,0.161
			c-0.002,0.088,0.187,0.276,0.185,0.364c-0.007,0.255-0.013,0.51-0.02,0.765c-0.002,0.092-0.187,0.083-0.189,0.175
			c-0.002,0.097,0.177,0.295,0.175,0.392c-0.006,0.241-0.012,0.483-0.018,0.724c-0.002,0.101-0.22,0.125-0.223,0.226
			c-0.002,0.088,0.21,0.253,0.208,0.34c-0.006,0.222-0.011,0.44-0.017,0.658c-0.002,0.102-0.247,0.084-0.249,0.185
			c-0.003,0.11,0.236,0.339,0.233,0.447c-0.005,0.187-0.047,0.328-0.052,0.51c-0.003,0.103-0.195,0.089-0.198,0.188
			c-0.002,0.103,0.185,0.318,0.183,0.419c-0.007,0.265,0.024,0.565,0.018,0.817c-0.002,0.093-0.185,0.018-0.187,0.108
			c-0.002,0.08,0.176,0.327,0.174,0.405c0,0.008,0.003,0.012,0.003,0.02c-0.82,0.109-1.537,0.353-1.537,0.353
			s-0.076,0.76-0.097,2.043c-0.021-0.051-0.063-0.099-0.143-0.134c-0.242-0.106-0.435,0.642-0.584,0.992
			c-0.464,1.092-1.544,3.56-2.373,5.346C17.818,87.716,15.662,92.7,14,97.302c-0.338,0.923-0.671,1.824-0.997,2.698h0.897
			c1.045-2.74,2.299-5.733,3.658-8.493c2.311-4.681,4.125-9.191,4.982-11.358c0.001-0.003,0-0.002,0.001-0.005
			c-0.043-0.044,0.068-0.176,0,0c0.013,0.013,0.031,0.021,0.078,0.009c0.016-0.004,0.023-0.017,0.037-0.022
			c0.056,1.667,0.077,3.646-0.116,5.788c-0.126,1.397-0.199,2.604-0.079,4.264c0.122,1.68,0.047,3.15-0.088,4.794
			c-0.081,0.98-0.035,1.892-0.049,2.688c-0.018,0.97-0.032,1.769-0.043,2.337h4.116c-0.021-0.678-0.021-1.705,0.09-2.977
			c0.11-1.269,0.019-1.779,0.029-2.786c0.01-0.97,0.117-2.312,0.032-3.061c-0.1-0.881,0.011-1.516,0.028-2.702
			c0.014-0.926-0.102-1.288,0.025-2.474c0.099-0.912,0.068-1.819,0.029-2.683c-0.059-1.28,0.091-1.899,0.031-3.024
			c-0.013-0.229-0.011-0.438-0.014-0.655c0.68,2.332,2.023,6.801,3.809,11.474c1.106,2.905,2.083,6.037,2.871,8.888h0.871
			c-0.243-0.904-0.491-1.836-0.742-2.789c-1.223-4.734-2.901-9.897-4.26-13.722c-0.658-1.854-1.502-4.412-1.861-5.542
			c-0.117-0.363-0.238-1.126-0.49-1.042c-0.051,0.017-0.067,0.047-0.095,0.073c0.019-0.873-0.04-1.305-0.04-1.305
			s-0.685-0.242-1.493-0.286c-0.05-0.053-0.132-0.093-0.131-0.168c0.003-0.2,0.007-0.406,0.01-0.62
			c0.001-0.082,0.179-0.274,0.18-0.358c0.001-0.087-0.173-0.066-0.172-0.154c0.003-0.223-0.031-0.492-0.028-0.726
			c0.002-0.1,0.182-0.285,0.183-0.387c0.001-0.083-0.175-0.082-0.173-0.167c0.002-0.203,0.043-0.368,0.047-0.578
			c0.001-0.087,0.179-0.271,0.18-0.358c0.002-0.092-0.174-0.088-0.172-0.18c0.004-0.262,0.008-0.525,0.012-0.791
			c0.002-0.083,0.225-0.287,0.227-0.37c0-0.062-0.221-0.003-0.22-0.064c0.005-0.279,0.05-0.598,0.055-0.879
			c0.001-0.062,0.226-0.258,0.227-0.318c0.001-0.075-0.222-0.016-0.221-0.09c0.005-0.304-0.032-0.57-0.028-0.873
			c0.002-0.074,0.192-0.271,0.193-0.345c0.002-0.079-0.188-0.036-0.186-0.115c0.004-0.248,0.008-0.494,0.012-0.738
			c0-0.078,0.23-0.251,0.232-0.329c0-0.075-0.227-0.056-0.227-0.13c0.004-0.218-0.035-0.396-0.031-0.608
			c0.002-0.084,0.23-0.287,0.232-0.37c0-0.075-0.227-0.03-0.225-0.104c0.003-0.237,0.01-0.549,0.014-0.776
			c0.002-0.07,0.188-0.237,0.189-0.307c0.001-0.084-0.184-0.07-0.182-0.153c0.002-0.185,0.043-0.324,0.045-0.5
			c0.002-0.07,0.182-0.224,0.183-0.293c0.001-0.084-0.177-0.084-0.175-0.166c0.002-0.163,0.005-0.321,0.008-0.475
			c0-0.09,0.212-0.22,0.213-0.306c0.002-0.081-0.207-0.118-0.206-0.195c0.004-0.246,0.007-0.475,0.011-0.685
			c0.007-0.456,0.686-0.811,0.689-1.071c0.004-0.28-0.666-0.231-0.666-0.231s0.268-0.091,0.395-0.281
			c0.021,0.188,0.024,0.04,0.024-0.073c0.019-0.044,0.044-0.084,0.044-0.136c0-0.044-0.037-0.078-0.096-0.106
			c-0.025-0.326-0.062-0.885-0.117-1.865c-0.043-0.734-0.098-1.532-0.113-2.065c-0.021-0.704,0.057-2.679,0.057-2.679L25.504,53.2
			c0.913,0.012,1.896-0.045,2.494-0.233c1.067-0.336,1.41-0.59,1.956-0.964c0.014-0.003,0.028-0.004,0.042-0.006
			c0.94-0.135,1.532-0.664,1.532-0.664s0.572,0.313,1.296,0.054c2.41-0.86,5.082-2.278,7.188-3.922
			c6.068-4.74,9.152-12.577,9.053-19.867c-0.072-5.257-1.803-9.955-5.246-14.299C35.6,2.931,20.775,1.524,10.331,9.681z
			 M22.546,78.173c0,0,0.053-0.073,0.082-0.164c-0.001,0.089-0.002,0.175-0.002,0.269C22.608,78.242,22.583,78.208,22.546,78.173z
			 M22.626,78.569c0,0.112,0,0.22,0.002,0.337C22.567,78.792,22.598,78.681,22.626,78.569z M26.739,77.365
			c0.001,0.001,0.005,0.01,0.005,0.01c-0.003,0.002-0.003,0.004-0.006,0.006C26.738,77.376,26.739,77.371,26.739,77.365z
			 M4.918,15.951c1.084-1.452,1.564-2.444,2.744-3.492c1.045-0.928,1.57-1.912,2.885-2.514c0.115,0.138,0.944,0.828,2.289,2.163
			c1.046,1.038,2.276,2.255,3.4,3.364c1.836,1.813,3.389,3.343,3.389,3.343s-1.611-0.164-4.187-0.019
			c-2.028,0.115-4.382,0.058-6.817-0.025c-3.039-0.104-4.899-0.026-4.899-0.026C4.158,17.655,4.239,16.861,4.918,15.951z
			 M21.313,51.71c-1.086-0.1-3.945-0.831-4.925-1.188c-2.251-0.818-2.68-1.114-4.644-2.095c0.058,0.032-0.884-0.705-2.463-1.886
			c-0.749-0.56-0.908-0.749-1.759-1.606c-0.921-0.929-1.046-1.339-1.9-2.444c-1.472-1.907-2.558-4.5-2.6-4.6
			c-0.62-0.03-0.004-0.009-0.004-0.009s0.003,0.007,0.004,0.009c0.235,0.011,0.641,0.03,1.333,0.06
			c1.535,0.066,2.772,0.021,4.222,0.07c2.029,0.069,3.237-0.07,3.237-0.07s3.725,3.228,6.228,6.149
			c1.435,1.675,3.125,3.313,4.785,4.771c1.809,1.589,3.067,3.104,2.919,3.117C24.49,52.059,23.296,51.892,21.313,51.71z
			 M41.233,45.903c-1.312,1.143-2.445,2.351-4.089,3.083c-0.141-0.173-0.693-1.034-2.348-2.716
			c-1.285-1.308-2.797-2.841-4.179-4.239c-2.257-2.284-4.099-4.08-4.099-4.08s1.934,0.096,5.137-0.051
			c2.523-0.115,4.926-0.085,7.951,0.051c1.244,1.078,2.111,1.956,2.111,1.956c0.78,1.072,1.561,1.39,2.533,2.653
			C42.884,44.356,42.715,44.614,41.233,45.903z M46.504,18.955c0,0-2.053,0.109-4.574,0c-1.535-0.067-3.264,0.05-4.715,0
			c-2.029-0.07-3.447,0-3.447,0s-3.213-3.261-6.026-5.892c-1.718-1.604-3.409-3.208-4.787-4.771
			c-1.592-1.804-2.844-2.943-2.696-2.957c1.433-0.453,2.484-0.426,4.222-0.559c1.089-0.084,3.052,0.103,4.081,0.279
			c2.323,0.398,4.156,0.975,6.121,1.955c-0.058-0.032,0.703,0.745,2.107,2.17c0.654,0.665,1.615,1.442,2.467,2.3
			c0.922,0.929,1.746,1.961,2.814,2.863C44.663,16.534,46.504,18.955,46.504,18.955z"/>
	</g>
</g>
<g id="Прямоугольник_2_копия">
	<g>
		<path fill-rule="evenodd" clip-rule="evenodd" fill="#47A0D8" d="M22.93,76.102l-0.167,1.893c0,0,1.029,0.967,2.359,2.024
			c0.729,0.579,1.277,1.112,1.277,1.112s0.06-1.505,0.106-2.663c0.029-0.724,0.053-1.313,0.053-1.313s-0.617-0.56-1.295-1.063
			C24.336,75.404,22.93,76.102,22.93,76.102z M22.853,82.165c0,0,0.054,1.118,0.109,2.271c0.043,0.9-0.229,1.67-0.229,1.67
			s0.981,0.979,2.022,1.697c0.9,0.621,1.583,1.328,1.583,1.328l0.092-4.125c0,0-1.254-0.777-2.129-1.691
			C23.542,82.522,22.853,82.165,22.853,82.165z M30.669,50.96c-0.014-0.019-0.033-0.034-0.04-0.056
			C30.554,50.907,30.587,50.931,30.669,50.96z M22.686,90.05l-0.148,3.758c0,0,0.978,0.742,1.885,1.687
			c0.853,0.888,1.821,1.526,1.821,1.526l0.086-3.979c0,0-1.209-1.048-2.491-2.044C23.185,90.488,22.686,90.05,22.686,90.05z
			 M43.938,13.307C35.73,2.948,20.927,1.542,10.496,9.692c-0.672,0.525-1.308,1.074-1.908,1.645
			c-0.587,0.521-1.117,1.077-1.611,1.686c-3.268,3.75-5.179,8.269-5.67,13.171C0.712,32.132,2.183,38.698,6.113,43.66
			c5.599,7.066,15.592,9.721,24.021,8.313c0.939-0.134,1.53-0.663,1.53-0.663s0.571,0.313,1.294,0.054
			c2.406-0.86,5.074-2.276,7.178-3.919c6.061-4.735,9.14-12.566,9.039-19.851C49.104,22.341,47.376,17.647,43.938,13.307z
			 M44.057,14.017c1.14,1.44,2.05,2.983,2.759,4.602c-0.448-0.572-1.92-2.394-3.85-4.196c-0.901-0.842-2.83-2.619-4.118-3.97
			c-0.293-0.307-2.386-2.444-3.444-3.425C38.745,8.67,41.817,11.186,44.057,14.017z M27.171,4.851
			c-2.253-0.142-4.497,0.063-6.972,0.64c-0.32,0.074,1.46,2.069,4.042,4.428c1.84,1.68,3.731,3.424,5.229,5.168
			c0.77,0.895,3.657,3.732,3.657,3.732s-0.937,0.175-4.005,0.07c-1.772-0.061-2.829-0.14-4.427,0
			c-2.356,0.206-4.146-0.14-4.146-0.14s-0.946-0.558-2.6-2.233c-0.875-0.886-2.963-2.507-4.356-3.698
			c-1.831-1.564-2.596-3.044-2.658-3.184C15.684,6.081,21.463,4.437,27.171,4.851z M4.51,40.525c0.38,0.625,0.864,1.378,1.459,2.238
			C5.435,42.04,4.948,41.293,4.51,40.525z M39.986,47.028c-2.169,1.747-4.469,3.205-6.782,3.967
			c-0.915,0.301-2.217,0.077-2.535-0.035c0.207,0.285,1.159,0.19,0.527,0.441c-3.886,1.544-9.75,0.784-15.495-0.971
			c-2.747-0.839-5.291-2.81-7.253-4.789c2.108,1.835,3.85,2.716,6.691,4.082c5.473,2.025,7.73,2.574,11.524,2.372
			c0.328-0.018-1.915-2.176-4.498-4.536c-1.84-1.681-2.436-2.371-3.935-4.117c-0.769-0.895-5.762-5.652-5.762-5.652
			s1.816,0.07,4.567-0.069c1.771-0.09,3.672,0.209,5.271,0.069c2.356-0.206,3.865,0,3.865,0s2.141,1.464,3.795,3.141
			c0.874,0.887,1.768,2.786,3.161,3.978c1.911,1.634,3.49,3.797,3.49,3.814c4.741-2.848,3.907-2.65,7.448-6.769
			c0,0-2.092-2.429-4.263-4.164c-1.602-0.104-0.802-0.17-2.144-0.239c-1.291-0.067-2.537,0.43-3.97,0.31
			c-1.249-0.104-1.968-0.205-3.443-0.31c-1.231-0.088-2.493,0-3.759,0c-1.006,0-1.875-0.035-3.022,0
			c-0.931,0.028-1.859-0.032-2.775,0c-1.003,0.034-1.016-0.07-2.144,0c-0.712,0.044-1.42-0.061-2.108,0
			c-1.203,0.104-0.396,0.069-1.581,0c-0.709-0.042-1.267,0.015-2.073,0c-0.966-0.018-1.146-0.07-2.249,0
			c-0.625,0.039-1.226-0.02-1.792,0c-2.087,0.069-2.632-0.035-3.865,0c-1.25,0.035-1.335,0.379-1.335,0.379l-0.107,0.477
			c-2.199-5.023-2.502-10.702-0.915-16.093c0.308-1.047,0.704-2.109,1.164-3.162c0.393-0.042,1.706-0.147,4.214,0.017
			c1.602,0.104,2.805,0.069,4.146,0.14c1.291,0.066,2.924-0.26,4.356-0.14c1.249,0.104,1.827-0.105,3.303,0
			c1.232,0.087,2.494,0,3.759,0c1.006,0,1.875,0.034,3.022,0c0.93-0.028,1.858,0.031,2.775,0c1.002-0.035,1.016,0.069,2.143,0
			c0.713-0.045,1.42,0.06,2.108,0c1.203-0.105,0.396-0.07,1.581,0c0.709,0.041,0.951,0.124,1.757,0.14
			c0.966,0.018,1.462-0.07,2.564-0.14c0.626-0.04,1.226,0.019,1.792,0c2.088-0.07,2.633,0.034,3.865,0c1.25-0.036,1.967,0,1.967,0
			l-0.004-0.017c1.472,3.622,1.949,7.609,1.63,11.711C48.188,37.03,45.03,42.964,39.986,47.028z M22.301,100h3.483l-3.271-2.686
			L22.301,100z"/>
	</g>
</g>
<g id="Фигура_2">
	<g>
		<path fill-rule="evenodd" clip-rule="evenodd" d="M43.818,13.299C35.6,2.931,20.775,1.524,10.331,9.681
			c-5.443,4.251-8.554,10.051-9.202,16.516c-0.596,5.943,0.877,12.515,4.813,17.48c3.354,4.232,8.287,6.87,13.514,8.016
			c0.196,0.448,1.162,0.89,1.825,1.022c0.769,0.155,1.546,0.286,2.413,0.376l-0.142-0.007c0,0,0.499,1.465,0.354,2.853
			c-0.094,0.897-0.37,1.571-0.354,2.404c0.014,0.815,0.101,1.325,0.147,1.546c-0.329,0.066-0.546,0.155-0.519,0.261
			c0.101,0.398,0.998,0.353,0.676,0.38c-0.352,0.03-0.861,0.173-0.867,0.326c-0.01,0.239,1.451,0.672,1.434,1.071
			c-0.014,0.335-0.03,0.721-0.048,1.146c-0.003,0.073-0.443,0.068-0.447,0.145c-0.003,0.068,0.431,0.218,0.428,0.289
			c-0.007,0.175-0.015,0.355-0.023,0.54c-0.003,0.074-0.417,0.083-0.419,0.158c-0.002,0.057,0.405,0.18,0.403,0.237
			c-0.008,0.197-0.017,0.399-0.026,0.606c-0.003,0.082-0.458,0.099-0.461,0.183c-0.004,0.083,0.443,0.233,0.44,0.317
			c-0.011,0.245-0.021,0.495-0.032,0.75c-0.003,0.069-0.439,0.087-0.442,0.157c-0.003,0.083,0.426,0.219,0.423,0.303
			c-0.009,0.204-0.018,0.411-0.026,0.619c-0.003,0.079-0.414,0.066-0.417,0.146c-0.003,0.074,0.4,0.24,0.397,0.315
			c-0.01,0.235-0.02,0.473-0.03,0.711c-0.003,0.087-0.328,0.073-0.332,0.161c-0.003,0.087,0.313,0.276,0.31,0.364
			c-0.011,0.254-0.022,0.51-0.033,0.765c-0.004,0.092-0.313,0.082-0.317,0.175c-0.004,0.097,0.297,0.295,0.293,0.392
			c-0.01,0.242-0.021,0.483-0.031,0.724c-0.004,0.102-0.368,0.125-0.372,0.226c-0.004,0.088,0.352,0.253,0.348,0.341
			c-0.009,0.221-0.019,0.44-0.028,0.658c-0.004,0.102-0.413,0.084-0.417,0.185c-0.004,0.11,0.396,0.339,0.391,0.447
			c-0.008,0.187-0.079,0.329-0.086,0.51c-0.004,0.103-0.327,0.089-0.331,0.189c-0.004,0.102,0.31,0.317,0.305,0.418
			c-0.011,0.266,0.041,0.566,0.03,0.817c-0.004,0.094-0.309,0.019-0.313,0.109c-0.003,0.08,0.294,0.326,0.291,0.405
			c-0.001,0.02,0.013,0.031,0.015,0.049c-0.761,0.121-1.366,0.302-1.366,0.302s-0.081,0.709-0.107,1.914
			c-0.198,0.087-0.36,0.687-0.49,0.99c-0.464,1.092-1.544,3.56-2.373,5.346C17.818,87.716,15.662,92.7,14,97.302
			c-0.338,0.923-0.671,1.824-0.997,2.698h0.897c1.045-2.74,2.299-5.733,3.658-8.493c2.223-4.503,3.978-8.827,4.871-11.08
			c0.055,1.605,0.065,3.474-0.141,5.491c-0.143,1.399-0.226,2.606-0.089,4.266c0.139,1.681,0.054,3.152-0.1,4.797
			c-0.092,0.98-0.04,1.892-0.056,2.688c-0.02,0.967-0.037,1.764-0.049,2.332h0.436c0.001-0.521,0.011-1.301,0.048-2.278
			c0.057-1.46-0.27-2.065,0.054-3.699c0.216-1.09,0.168-2.171,0.05-3.422c-0.079-0.83-0.042-1.171,0.037-2.528
			c0.143-2.472,0.213-4.792,0.159-7.145c-0.007-0.296-0.017-0.577-0.027-0.854c0.259-0.254,0.008-0.936-0.035-1.04
			c-0.018-0.651-0.017-1.229,0.049-1.703c0.133-0.955,0.109-1.245,0.109-1.245s0.933,0.253,1.836,0.223
			c0.968-0.032,1.836-0.298,1.836-0.298s0.104,0.679-0.076,2.245c-0.095,0.195-0.353,0.817-0.057,1.033
			c0.012,0.73,0.104,1.552,0.077,2.551c-0.026,0.986,0.116,2.073,0.05,3.312c-0.115,2.099-0.256,4.416-0.18,6.552
			c0.088,2.469,0.006,4.25-0.009,6.005c-0.008,0.958-0.015,1.74-0.021,2.293h0.332c-0.024-0.678-0.024-1.703,0.102-2.972
			s0.021-1.78,0.033-2.787c0.012-0.97,0.133-2.313,0.037-3.062c-0.113-0.882,0.012-1.517,0.032-2.703
			c0.016-0.926-0.114-1.288,0.029-2.475c0.111-0.913,0.077-1.82,0.032-2.685c-0.056-1.088,0.057-1.701,0.051-2.551
			c0.742,2.49,1.948,6.344,3.477,10.346c1.106,2.905,2.083,6.037,2.871,8.888h0.871c-0.243-0.904-0.491-1.836-0.742-2.789
			c-1.223-4.734-2.901-9.897-4.26-13.722c-0.658-1.854-1.502-4.412-1.861-5.542c-0.076-0.237-0.155-0.643-0.271-0.873
			c0.03-0.944-0.043-1.404-0.043-1.404s-0.722-0.223-1.594-0.279c-0.084-0.045-0.193-0.085-0.191-0.152
			c0.004-0.2,0.01-0.407,0.016-0.62c0.002-0.083,0.299-0.274,0.301-0.359c0.002-0.087-0.291-0.065-0.288-0.154
			c0.005-0.223-0.052-0.492-0.046-0.726c0.002-0.1,0.302-0.285,0.305-0.387c0.002-0.083-0.293-0.082-0.291-0.167
			c0.006-0.203,0.074-0.369,0.079-0.578c0.003-0.087,0.3-0.271,0.302-0.359c0.002-0.092-0.29-0.087-0.288-0.18
			c0.007-0.261,0.014-0.525,0.021-0.791c0.002-0.083,0.375-0.287,0.378-0.37c0.001-0.062-0.368-0.002-0.367-0.064
			c0.007-0.279,0.084-0.598,0.091-0.88c0.002-0.061,0.378-0.257,0.379-0.318c0.002-0.074-0.37-0.015-0.368-0.09
			c0.008-0.304-0.054-0.57-0.046-0.872c0.002-0.075,0.32-0.271,0.322-0.346c0.002-0.079-0.313-0.036-0.311-0.115
			c0.006-0.248,0.012-0.494,0.018-0.738c0.002-0.078,0.388-0.251,0.39-0.33c0.002-0.074-0.38-0.056-0.378-0.13
			c0.006-0.218-0.059-0.396-0.053-0.608c0.002-0.084,0.387-0.287,0.389-0.37c0.002-0.075-0.379-0.03-0.377-0.104
			c0.007-0.237,0.02-0.549,0.025-0.776c0.002-0.07,0.313-0.237,0.315-0.307c0.002-0.084-0.306-0.071-0.304-0.153
			c0.004-0.185,0.072-0.324,0.076-0.501c0.002-0.07,0.303-0.224,0.305-0.292c0.002-0.085-0.295-0.085-0.293-0.167
			c0.005-0.162,0.009-0.321,0.013-0.475c0.003-0.09,0.356-0.22,0.358-0.306c0.002-0.081-0.348-0.118-0.346-0.195
			c0.006-0.246,0.012-0.475,0.018-0.685c0.012-0.456,1.147-0.811,1.154-1.072c0.007-0.279-1.113-0.231-1.113-0.231
			s0.338-0.069,0.566-0.212c0.008,0.024,0.013,0.014,0.017-0.011c0.108-0.072,0.191-0.159,0.189-0.268
			c-0.001-0.058-0.104-0.101-0.268-0.131c-0.04-0.33-0.097-0.887-0.184-1.85c-0.066-0.735-0.152-1.535-0.177-2.068
			c-0.034-0.701,0.086-2.653,0.088-2.68c0.806-0.007,1.621-0.07,2.143-0.234c1.067-0.336,1.41-0.59,1.956-0.964
			c0.014-0.003,0.028-0.004,0.042-0.006c0.94-0.135,1.532-0.664,1.532-0.664s0.572,0.313,1.296,0.054
			c2.41-0.86,5.082-2.278,7.188-3.922c6.068-4.74,9.152-12.577,9.053-19.867C48.992,22.341,47.262,17.643,43.818,13.299z
			 M5.258,16.015c1.084-1.452,1.519-2.19,2.699-3.237c0.895-0.795,1.44-1.587,2.404-2.177c0.074-0.092,0.147-0.171,0.209-0.233
			c0.025-0.02,0.047-0.043,0.072-0.063C13.646,7.956,17.1,6.41,20.695,5.696c0-0.011-0.005-0.026,0.007-0.027
			c1.433-0.453,2.048-0.463,3.786-0.596c1.088-0.084,3.057,0.195,4.085,0.372c2.323,0.399,3.958,0.657,5.923,1.638
			c-0.021-0.011,0.09,0.074,0.297,0.247c3.384,1.605,6.508,4.117,8.766,6.97c1.027,1.298,1.857,2.685,2.525,4.133
			c0.264,0.32,0.42,0.522,0.42,0.522s-2.053,0.109-4.574,0c-1.535-0.067-3.264,0.05-4.715,0c-2.029-0.07-3.447,0-3.447,0
			s-0.096-0.097-0.255-0.258c-0.451,0.083-1.743,0.266-4.151,0.184c-1.775-0.061-2.898-0.065-4.499,0.074
			c-2.359,0.206-4.311-0.074-4.311-0.074s-1.206,0.374-2.507-0.139c-0.685-0.012-1.561-0.004-2.607,0.055
			c-2.028,0.115-4.382,0.058-6.817-0.025c-3.039-0.104-4.899-0.026-4.899-0.026C4.158,17.655,4.579,16.925,5.258,16.015z
			 M45.291,40.058c-0.629,1.139-1.273,2.01-1.273,2.01s-0.032,0.078-0.115,0.175c0.014,0.018,0.025,0.03,0.039,0.048
			c-1.367,1.796-1.518,2.135-2.998,3.424c-1.313,1.143-2.33,2.134-3.973,2.866c-0.004-0.004-0.01-0.012-0.014-0.017
			c-1.328,0.856-2.686,1.557-4.049,2.005c-0.708,0.232-1.238,0.304-1.447,0.321c0.009,0.028,0.016,0.043,0.021,0.06
			c-0.017-0.02-0.042-0.04-0.079-0.056c0.016-0.001,0.03-0.001,0.058-0.004c0-0.001-0.001-0.001-0.001-0.003
			c-0.034,0.001-0.051,0.003-0.067,0.004c-0.087-0.033-0.229-0.038-0.455,0.075c-1.295,0.646-2.868,0.92-4.672,0.905
			c0.005,0.017,0.017,0.042,0.006,0.043c-1.257,0.069-2.451-0.099-4.434-0.279c-1.086-0.1-3.945-0.831-4.926-1.188
			c-2.251-0.818-2.68-1.114-4.644-2.095c0.058,0.031-0.883-0.706-2.462-1.886c-0.749-0.56-0.909-0.749-1.759-1.606
			c-0.921-0.93-1.046-1.339-1.9-2.444c-1.469-1.904-2.554-4.492-2.599-4.6c-0.621-0.031-0.004-0.01-0.004-0.01
			s0.003,0.008,0.004,0.01c0.235,0.011,0.641,0.03,1.333,0.06c1.535,0.066,2.772,0.02,4.222,0.07
			c0.115,0.004,0.217,0.005,0.326,0.008c0.795-0.087,1.862-0.065,2.471-0.041c0.282-0.02,0.439-0.037,0.439-0.037
			s0.028,0.024,0.068,0.06c0.143,0.001,1.975,0.021,4.621-0.112c1.773-0.091,3.91,0.027,5.51-0.112
			c2.134-0.187,3.737,0.205,4.026,0.282c-0.017-0.016-0.045-0.043-0.045-0.043s0.107,0.005,0.284,0.01
			c0.573-0.149,2.437-0.558,3.907-0.024c0.304-0.01,0.613-0.021,0.945-0.037c2.523-0.115,4.926-0.085,7.951,0.051
			c0.022,0.02,0.043,0.038,0.065,0.058c0.129-0.037,0.216-0.058,0.216-0.058s2.104,0.034,3.871,0.07
			c1.708,0.034,2.885-0.07,2.885-0.07S45.855,39.038,45.291,40.058z M46.602,37.142c-0.667,0.046-2.342,0.126-4.672-0.026
			c-1.604-0.105-3.055,0.069-4.397,0c-1.292-0.067-2.682,0.12-4.116,0c-1.25-0.105-1.83,0.104-3.307,0c-1.234-0.088-2.498,0-3.766,0
			c-1.007,0-1.877-0.035-3.025,0c-0.932,0.028-1.861-0.032-2.779,0c-1.004,0.034-1.017-0.07-2.146,0
			c-0.713,0.044-1.422-0.061-2.111,0c-1.205,0.104-0.396,0.069-1.583,0c-0.71-0.042-1.269,0.015-2.076,0
			c-0.967-0.018-1.148-0.07-2.251,0c-0.626,0.039-1.228-0.02-1.794,0c-2.09,0.069-2.636-0.035-3.87,0
			c-0.652,0.019-1.155-0.031-1.491-0.083c-1.713-4.624-1.85-9.73-0.416-14.596c0.265-0.9,0.604-1.811,0.985-2.718
			c0.592-0.045,1.85-0.096,3.948,0.041c1.604,0.104,3.054-0.07,4.397,0c1.292,0.067,2.682-0.12,4.117,0
			c1.25,0.104,1.829-0.104,3.307,0c1.233,0.087,2.497,0,3.764,0c1.007,0,1.878,0.035,3.025,0c0.932-0.028,1.861,0.032,2.779,0
			c1.005-0.035,1.018,0.069,2.146,0c0.713-0.044,1.422,0.06,2.111,0c1.205-0.104,0.396-0.07,1.583,0c0.71,0.042,1.269-0.015,2.075,0
			c0.967,0.018,1.148,0.069,2.252,0c0.626-0.04,1.228,0.019,1.795,0c2.09-0.07,2.636,0.035,3.869,0
			c0.798-0.022,1.376-0.016,1.693-0.009c1.314,3.441,1.735,7.204,1.434,11.071C47.914,32.983,47.405,35.113,46.602,37.142z
			 M26.557,40.469c-0.668,0.663-1.244,1.436-1.835,2.064c-0.305-0.256-0.604-0.526-0.875-0.88c-0.49-0.486-0.795-0.822-1.337-1.188
			c-0.578,0.052-1.125,0.443-0.985,1.048c0.752,0.746,1.339,1.494,1.949,2.173c-1.034,0.934-1.105,1.123-1.878,2.018
			c-0.559,0.576,0.627,1.271,1.055,1.117c1.181-1.238,0.69-0.573,1.132-1.077c0.298-0.225,0.595-0.511,0.892-0.813
			c0.612,0.592,1.005,0.907,1.705,1.611c1.068,0.605,1.428-0.613,1.268-1.048c-0.438-0.683-0.864-0.924-1.408-1.536
			c-0.097-0.127-0.204-0.224-0.307-0.334c0.242-0.239,0.484-0.461,0.729-0.645c0.49-0.486,1.075-0.649,1.549-1.466
			C27.77,40.73,27.166,40.33,26.557,40.469z M40.945,27.615c-1.202,0-3.623,0.138-4.645,0.069c-2.395-0.16-3.87,0.14-5.418-0.14
			c-0.861,0-0.492,1.482-0.07,1.677c1.712-0.047,1.524,0.116,3.236,0.069c1.196,0.163,3.589-0.023,4.785,0.14
			c0.691,0,1.83,0.175,2.744-0.069C41.824,28.503,41.473,27.942,40.945,27.615z M18.889,27.747c-1.717,0.047-1.529-0.117-3.246-0.07
			c-0.244-0.033-0.545-0.049-0.868-0.06c-0.002-0.713,0.006-1.391,0.073-1.872c0-0.688,0.176-1.82-0.071-2.73
			c-0.868-0.245-1.436,0.104-1.767,0.63c0,0.987,0.094,2.788,0.088,3.963c-0.85,0.005-1.687,0.006-2.253-0.071
			c-0.693,0-1.835-0.175-2.751,0.07c-0.247,0.862,0.105,1.426,0.635,1.754c1.087,0,3.16-0.111,4.31-0.083
			c-0.04,1.81,0.142,3.072-0.099,4.382c0,0.857,1.5,0.49,1.697,0.07c-0.047-1.704,0.118-1.518,0.07-3.222
			c0.044-0.319,0.062-0.726,0.069-1.17c1.626,0.011,2.815-0.129,4.042,0.093C19.682,29.431,19.312,27.941,18.889,27.747z"/>
	</g>
</g>
<g id="Эллипс_1_копия_4" opacity="0.102">
	<g>
		<path fill-rule="evenodd" clip-rule="evenodd" d="M42.9,12.564c3.597,5.213,2.922,11.209,1.021,16.995
			c-1.346,4.098-4.875,7.396-8.428,10.391c-3.322,2.8-6.213,5.1-11.039,6.102c-5.885,1.222-12.048,1.461-17.607-2.08
			c1.455,1.607,4.261,4.983,11.04,6.863c2.006,0.557,4.184,1.156,6.998,1.323c3.724,0.22,7.285-0.536,10.466-2.029
			c4.199-1.971,7.739-5.225,10.119-9.217c2.182-3.655,3.39-7.929,3.244-12.4C48.191,21.171,47.018,17.035,42.9,12.564z
			 M25.176,83.113c0.109,2.873,0.296,5.983,0.072,9.202c-0.322,4.612,0.064,8.422,0.064,8.422l1.082-1.223l0.047-23.776
			l-1.321,0.226C25.12,75.964,25.004,78.606,25.176,83.113z"/>
	</g>
</g>
<g id="Фигура_1" opacity="0.549">
	<g>
		<path fill-rule="evenodd" clip-rule="evenodd" fill="#FFFFFF" d="M14.154,10.777c-1.487-0.732-5.315,2.793-5.507,5.191
			c1.386-2.729,2.768-3.58,4.379-4.189c0.218-0.164,0.754-0.813,1.028-0.678c0.426-0.184,0.852-0.368,1.277-0.553
			C14.968,10.524,14.256,10.572,14.154,10.777z M15.334,10.548c-0.001,0-0.002,0.001-0.003,0.001c0.007,0,0.014,0.001,0.021,0.001
			C15.346,10.549,15.34,10.549,15.334,10.548z"/>
	</g>
</g>
</svg>
